<?xml version="1.0" encoding="utf-8"?>
<!-- Generator: Adobe Illustrator 27.0.0, SVG Export Plug-In . SVG Version: 6.00 Build 0)  -->
<svg version="1.1" id="Layer_1" xmlns="http://www.w3.org/2000/svg" xmlns:xlink="http://www.w3.org/1999/xlink" x="0px" y="0px"
	 viewBox="0 0 1375.2 586.89" style="enable-background:new 0 0 1375.2 586.89;" xml:space="preserve">
<style type="text/css">
	.st0{fill:#D8D8D8;}
	.st1{fill:#D6D1CA;}
	.st2{font-family:'Swiss721BT-RomanCondensed';}
	.st3{font-size:181.8589px;}
	.st4{fill:#655F5F;}
	.st5{fill:#5F97C5;}
	.st6{fill:#5D98C7;}
	.st7{fill:#695F5C;}
	.st8{font-family:'Poppins-Regular';}
	.st9{font-size:95.1332px;}
</style>
<g>
	<g>
		<text transform="matrix(1.0963 0 0 1 701.6722 328.1584)" class="st1 st2 st3"> tr    ff   c</text>
	</g>
	<polygon class="st4" points="131.21,242.72 131.21,299.37 77.72,272.62 77.72,216.04 43.1,195.52 43.1,345.94 77.72,365.45 
		77.72,302.88 131.21,331.18 131.21,393.15 165.83,412.66 165.83,263.24 	"/>
	<polygon class="st5" points="175.27,249.02 49.39,179.79 77.72,163.93 168.98,170.35 148.52,124.65 178.42,107.41 301.15,173.49 
		274.4,190.8 202.02,149.89 213.16,186.68 205.61,195.52 140.65,195.52 205.16,231.71 	"/>
	<polygon class="st1" points="183.14,256.89 179.99,407.94 189.74,407.94 305.87,338.71 305.87,297.61 224.05,341.85 214.61,341.85 
		214.61,275.77 305.87,223.4 305.87,184.51 	"/>
	<path class="st6" d="M994.61,278.55c0,11.03,0.13,20.65-0.15,30.27c-0.04,1.4-1.79,3.11-3.17,4.04
		c-32.04,21.74-76.49,15.89-101.81-13.3c-39.21-45.21-16.98-114.67,41.18-128.69c46.72-11.27,93.76,24.12,95.36,72.49
		c0.88,26.75,0.2,53.56,0.21,80.34c0,0.6-0.16,1.21-0.3,2.17c-7.16,0-14.32,0-22.07,0c-0.12-1.23-0.38-2.68-0.39-4.13
		c-0.02-24.47,0.06-48.95-0.03-73.42c-0.11-30.61-21.69-53.91-52.17-56.51c-27.66-2.36-54.06,19.36-58.13,47.84
		c-4.92,34.41,23.03,65.26,57.7,63.45c16.21-0.85,29.5-7.91,40.02-20.23C991.8,281.77,992.75,280.7,994.61,278.55z"/>
	<path class="st7" d="M1025.92,205.34c-4.87-7.94-10.21-15.88-14.83-24.57c-1.52-2.87-1.18-7.67-1.74-11.98c6.02,0,11.17,0,16.56,0
		C1025.92,181.33,1025.92,193.71,1025.92,205.34z"/>
	<g>
		<path class="st6" d="M1158.38,169.48c9.96,22.28,15.56,28.62,30.34,34.46c0.09,0.94,0.27,1.99,0.27,3.04
			c0.01,25.63,0.12,51.27-0.04,76.9c-0.15,23.26-12.32,42.68-27.77,44.86c-0.84,0.12-1.7,0.02-2.8,0.02
			C1158.38,275.81,1158.38,222.97,1158.38,169.48z"/>
		<path class="st6" d="M1233.46,328.63c-15.04,0.86-29.76-18.13-30.34-40.93c-0.7-27.77-0.17-55.62-0.17-82.02
			c6.3-4.79,12.64-8.14,17.76-13.92c5.02-5.67,8.81-13.81,12.75-20.23C1233.46,222.73,1233.46,275.47,1233.46,328.63z"/>
	</g>
	<text transform="matrix(1 0 0 1 374.3559 425.0685)" class="st7 st8 st9">AI for Traffic Insights</text>
	<circle class="st7" cx="1195.7" cy="168.77" r="28.32"/>
	<path class="st5" d="M400.97,217c0,1.13,0,2.26,0,3.39c0.02,34.48,0.04,68.97,0.07,103.45c0.01,6.43,0.03,6.43-6.39,6.44
		c-5.33,0.01-10.66,0.02-15.98,0.01c-4.18-0.01-4.42-0.24-4.42-4.47c0-41.56,0-83.11,0-124.67c0-2.42,0.04-4.84,0-7.26
		c-0.03-2.02,0.8-3.06,2.92-3.06c11.72,0.02,23.44,0.02,35.16,0c2.43,0,3.34,1.36,3.75,3.55c1.37,7.32,2.79,14.63,4.3,21.92
		c2.3,11.08,4.71,22.13,7.04,33.2c1.59,7.58,3.11,15.17,4.72,22.74c0.18,0.84-0.12,2.29,1.23,2.25c1.01-0.03,0.95-1.33,1.12-2.13
		c4.76-22.32,9.48-44.64,14.24-66.96c0.87-4.06,1.92-8.09,2.74-12.16c0.36-1.79,1.32-2.43,3.01-2.43c11.62,0.01,23.25,0.01,34.87,0
		c1.89,0,2.95,0.64,2.57,2.8c-0.22,1.23-0.18,2.51-0.18,3.77c-0.01,42.04-0.01,84.08,0,126.12c0,6.79,0.01,6.79-6.79,6.78
		c-4.84-0.01-9.69-0.05-14.53,0.02c-2.68,0.04-3.77-1.02-3.8-3.8c-0.08-7.93-0.34-15.9-0.18-23.79c0.18-8.81-0.76-17.58-0.26-26.36
		c1.03-18.2,0.26-36.4,0.5-54.6c0.01-0.92,0.29-1.93-0.64-2.97c-1.84,4.4-2.4,8.95-3.38,13.38c-2.38,10.86-4.69,21.73-6.94,32.62
		c-0.9,4.35-1.76,8.71-2.61,13.06c-1.08,5.48-2.36,10.95-3.62,16.41c-1.3,5.64-2.5,11.3-3.7,16.96c-1.15,5.38-2.27,10.77-3.36,16.16
		c-0.36,1.79-1.4,2.8-3.16,2.84c-4.07,0.08-8.13,0.06-12.2,0.03c-1.56-0.01-2.52-0.88-2.84-2.41c-1.35-6.43-2.74-12.85-4.04-19.29
		c-1.78-8.81-3.44-17.64-5.24-26.44c-2.25-10.99-4.65-21.95-6.88-32.95c-2.17-10.69-4.2-21.41-6.29-32.11
		C401.51,217.02,401.24,217.01,400.97,217z"/>
	<path class="st5" d="M514.93,260.6c0-21.8,0-43.59,0-65.39c0-4.17,0.23-4.39,4.48-4.4c6.01-0.01,12.01-0.01,18.02,0
		c3.98,0.01,4.22,0.25,4.22,4.36c0.01,15.98,0.01,31.97,0.01,47.95c0,4.44,0.18,4.63,4.54,4.63c8.33,0.01,16.66,0.01,24.99,0
		c5.07,0,5.33-0.28,5.33-5.5c0-15.69,0-31.39,0-47.08c0-4.08,0.26-4.34,4.23-4.36c6.1-0.02,12.21-0.02,18.31,0
		c3.98,0.01,4.23,0.27,4.23,4.35c0,41.56,0,83.12,0.01,124.67c0,2.51,0.08,5.03,0.26,7.54c0.14,1.88-0.76,2.81-2.47,2.83
		c-7.36,0.06-14.72,0.05-22.08,0.02c-1.52,0-2.27-0.95-2.39-2.4c-0.08-0.96-0.08-1.93-0.08-2.9c-0.01-17.05,0-34.1-0.01-51.15
		c0-4.28-0.21-4.51-4.36-4.52c-8.62-0.02-17.24-0.01-25.86-0.01c-4.43,0-4.63,0.2-4.64,4.55c-0.01,17.34,0,34.68-0.01,52.02
		c0,4.25-0.21,4.45-4.41,4.46c-6.1,0.01-12.21,0.02-18.31,0c-3.64-0.01-4-0.36-4-4C514.93,304.39,514.93,282.5,514.93,260.6z"/>
	<path class="st5" d="M650.38,257.54c0,10.29-0.07,17.85,0.02,25.4c0.09,6.8,1.05,13.5,2.88,20.05c1.42,5.08,5.39,8.05,10.69,8.16
		c10.06,0.19,15.08-4.66,15.48-14.84c0.19-4.92,1.4-9.77,1.19-14.74c-0.08-1.85,1.05-2.91,2.89-2.92
		c7.07-0.04,14.14-0.01,21.21-0.02c1.64,0,2.42,0.87,2.77,2.4c0.38,1.63,0.46,3.26,0.38,4.91c-0.39,8.11-0.77,16.27-3.62,23.95
		c-4.16,11.22-11.95,18.62-23.77,21.75c-8.72,2.3-17.54,2.34-26.19,0.85c-12.89-2.23-21.58-9.96-26.36-22.29
		c-3.08-7.93-3.61-16.18-4.31-24.46c-1.28-15.08-0.71-30.2-0.43-45.28c0.16-8.55,0.97-17.19,3.28-25.55
		c3.83-13.83,12.24-23.14,26.64-25.94c11.35-2.21,22.77-2.24,33.62,2.34c6.86,2.89,12.09,7.78,15.11,14.88
		c3.38,7.96,5.01,16.19,4.95,24.82c-0.02,2.49-0.99,3.48-3.46,3.45c-6.68-0.07-13.36-0.06-20.05-0.01c-2.68,0.02-3.9-1.11-3.87-3.83
		c0.04-3.66,0.03-7.28-1.04-10.91c-1.5-5.06-4.56-8.49-9.57-9.47c-5.19-1.01-10.34-0.38-13.91,4.31c-1.66,2.18-2.29,4.83-2.85,7.51
		C649.42,234.71,650.66,247.53,650.38,257.54z"/>
</g>
</svg>
